HIERARCHY
ROOT root
{
	OFFSET 0.000000 0.000000 0.000000
	CHANNELS 6 Xposition Yposition Zposition Zrotation Yrotation Xrotation
	JOINT lhip
	{
		OFFSET 0.058581 -0.082280 -0.017664
		CHANNELS 3 Zrotation Yrotation Xrotation
		JOINT lknee
		{
			OFFSET 0.043451 -0.386469 0.008037
			CHANNELS 3 Zrotation Yrotation Xrotation
			JOINT lankle
			{
				OFFSET -0.014790 -0.426874 -0.037428
				CHANNELS 3 Zrotation Yrotation Xrotation
				JOINT ltoe
				{
					OFFSET 0.041054 -0.060286 0.122042
					CHANNELS 3 Zrotation Yrotation Xrotation
					End Site
					{
						OFFSET 0.000000 0.000000 0.000000
					}
				}
			}
		}
	}
	JOINT rhip
	{
		OFFSET -0.060310 -0.090513 -0.013543
		CHANNELS 3 Zrotation Yrotation Xrotation
		JOINT rknee
		{
			OFFSET -0.043257 -0.383688 -0.004843
			CHANNELS 3 Zrotation Yrotation Xrotation
			JOINT rankle
			{
				OFFSET 0.019056 -0.420046 -0.034562
				CHANNELS 3 Zrotation Yrotation Xrotation
				JOINT rtoe
				{
					OFFSET -0.034840 -0.062106 0.130323
					CHANNELS 3 Zrotation Yrotation Xrotation
					End Site
					{
						OFFSET 0.000000 0.000000 0.000000
					}
				}
			}
		}
	}
	JOINT lowerback
	{
		OFFSET 0.004439 0.124404 -0.038385
		CHANNELS 3 Zrotation Yrotation Xrotation
		JOINT upperback
		{
			OFFSET 0.004488 0.137956 0.026820
			CHANNELS 3 Zrotation Yrotation Xrotation
			JOINT chest
			{
				OFFSET -0.002265 0.056032 0.002855
				CHANNELS 3 Zrotation Yrotation Xrotation
				JOINT lowerneck
				{
					OFFSET -0.013390 0.211636 -0.033468
					CHANNELS 3 Zrotation Yrotation Xrotation
					JOINT upperneck
					{
						OFFSET 0.010113 0.088937 0.050410
						CHANNELS 3 Zrotation Yrotation Xrotation
						End Site
						{
							OFFSET 0.000000 0.000000 0.000000
						}
					}
				}
				JOINT lclavicle
				{
					OFFSET 0.071702 0.114000 -0.018898
					CHANNELS 3 Zrotation Yrotation Xrotation
					JOINT lshoulder
					{
						OFFSET 0.122921 0.045205 -0.019046
						CHANNELS 3 Zrotation Yrotation Xrotation
						JOINT lelbow
						{
							OFFSET 0.255332 -0.015649 -0.022946
							CHANNELS 3 Zrotation Yrotation Xrotation
							JOINT lwrist
							{
								OFFSET 0.265709 0.012698 -0.007375
								CHANNELS 3 Zrotation Yrotation Xrotation
								End Site
								{
									OFFSET 0.000000 0.000000 0.000000
								}
							}
						}
					}
				}
				JOINT rclavicle
				{
					OFFSET -0.082954 0.112472 -0.023707
					CHANNELS 3 Zrotation Yrotation Xrotation
					JOINT rshoulder
					{
						OFFSET -0.113228 0.046853 -0.008472
						CHANNELS 3 Zrotation Yrotation Xrotation
						JOINT relbow
						{
							OFFSET -0.260127 -0.014369 -0.031269
							CHANNELS 3 Zrotation Yrotation Xrotation
							JOINT rwrist
							{
								OFFSET -0.269108 0.006794 -0.006027
								CHANNELS 3 Zrotation Yrotation Xrotation
								End Site
								{
									OFFSET 0.000000 0.000000 0.000000
								}
							}
						}
					}
				}
			}
		}
	}
}
MOTION
Frames: 5
Frame Time: 0.033333
1.696849 0.316273 0.939742 -101.362827 1.151377 89.937333 4.800331 0.464679 -20.095993 -2.876854 0.098753 3.417891 3.680520 13.796156 -8.774147 0.000000 -0.000000 0.000000 -1.662690 -3.405337 13.425577 3.470420 9.551077 19.426044 0.461694 -2.910109 -21.013984 0.000000 -0.000000 0.000000 -2.484587 12.343863 1.913784 1.022892 2.568571 2.433549 0.865071 1.951551 2.298777 0.788572 -3.739447 12.856639 0.267738 -5.140591 9.818063 -23.013206 -0.074237 8.343880 -65.312594 8.802571 13.844183 11.819889 -25.360849 28.490577 10.615391 4.155556 -3.783620 20.817991 1.755259 1.328996 59.366916 9.032637 14.223899 -7.170190 49.909855 26.246094 -11.334832 4.299530 -6.496927 
1.653285 0.312089 0.939506 -101.046098 0.485219 90.623891 3.464923 -0.706800 -19.483576 -3.242738 -0.794107 4.944300 6.771972 12.699786 -5.573227 0.000000 -0.000000 0.000000 -2.404920 -2.478972 12.843219 2.882050 9.536790 23.446857 1.255461 -2.784760 -17.169916 0.000000 -0.000000 0.000000 -4.027623 12.393003 -1.093804 1.689636 2.149650 4.538862 0.868025 2.352780 2.489508 1.360533 -4.035863 12.908939 0.415920 -5.118673 9.044368 -23.316303 -0.993048 8.725006 -65.712260 7.954742 14.236365 12.311151 -24.508863 27.022042 10.549351 5.031294 -4.032352 21.326478 2.291373 1.858713 59.820139 8.785681 14.785618 -9.332707 49.827798 23.885200 -11.010824 3.848733 -6.411911 
1.609706 0.306593 0.943381 -99.906406 -0.995306 91.843739 1.315494 -3.973182 -19.268279 -3.047207 -1.986251 7.202916 8.380080 15.101484 -4.428539 0.000000 -0.000000 0.000000 -3.728728 -1.761456 9.794592 2.150090 7.559184 30.388351 5.221239 -2.442264 -10.657159 0.000000 -0.000000 0.000000 -6.502904 12.525639 -3.366472 1.951800 1.448880 5.574103 0.787618 2.231261 1.874051 2.217134 -4.388203 12.912059 0.949697 -5.814677 9.073655 -22.519827 -2.493355 9.470665 -67.051452 7.675251 11.651041 12.355635 -24.398836 29.255812 11.130483 3.238222 -4.446538 21.530907 2.706571 1.529759 60.919794 6.138410 12.745132 -7.482410 49.761211 27.962285 -11.805060 3.137019 -8.909991 
1.558472 0.300275 0.952007 -97.910645 -2.097138 91.918688 -0.665064 -6.943457 -16.411955 -3.404658 -2.236949 8.048200 10.394940 16.242549 -5.730840 0.000000 -0.000000 0.000000 -4.412119 -1.083794 5.026158 1.134479 3.652557 41.179726 7.809915 -4.504449 2.065857 0.000000 -0.000000 0.000000 -7.339225 11.404167 -3.263126 1.729646 1.142327 6.055178 0.201581 1.911548 1.582324 2.248486 -5.123246 12.425106 1.711023 -5.747464 8.308994 -21.491414 -3.070810 9.176596 -67.535890 6.638782 12.219160 12.325644 -25.926801 29.591033 10.695085 2.404839 -4.417694 20.597444 2.556708 1.102425 64.216489 3.668107 14.280737 -10.290701 47.816556 25.582621 -10.772056 2.464384 -9.139206 
1.529422 0.296460 0.955792 -96.989937 -2.227155 91.790847 -1.836243 -6.427055 -14.230139 -3.622014 -3.216303 7.868390 12.059974 16.093046 -7.001573 0.000000 -0.000000 0.000000 -4.452662 -1.110897 0.984931 0.654259 2.176979 48.677926 7.318145 -6.820204 9.703720 0.000000 -0.000000 0.000000 -6.864391 10.114198 -2.621096 1.539618 1.473331 5.742895 -0.183972 1.766996 1.820460 1.745562 -5.714083 11.789613 1.784472 -5.192191 8.534336 -21.427671 -3.093851 8.908729 -67.190566 5.629653 12.383419 11.773386 -27.332389 30.287935 10.520914 1.811267 -3.952137 20.094009 2.434517 1.055271 65.257110 2.466799 14.890076 -10.665361 46.783858 24.998958 -9.726044 2.525176 -9.443978 
